<svg width="51" height="50" viewBox="0 0 51 50" fill="none" xmlns="http://www.w3.org/2000/svg">
<path d="M30.3075 9.61539H20.6921L15.8844 15.3846H10.1152C9.09513 15.3846 8.11685 15.7898 7.39556 16.5111C6.67426 17.2324 6.26904 18.2107 6.26904 19.2308V36.5385C6.26904 37.5585 6.67426 38.5368 7.39556 39.2581C8.11685 39.9794 9.09513 40.3846 10.1152 40.3846H40.8844C41.9045 40.3846 42.8828 39.9794 43.6041 39.2581C44.3254 38.5368 44.7306 37.5585 44.7306 36.5385V19.2308C44.7306 18.2107 44.3254 17.2324 43.6041 16.5111C42.8828 15.7898 41.9045 15.3846 40.8844 15.3846H35.1152L30.3075 9.61539Z" stroke="#FFFAFA" stroke-width="2" stroke-linecap="round" stroke-linejoin="round"/>
<path d="M25.5002 32.6923C28.6864 32.6923 31.2694 30.1093 31.2694 26.9231C31.2694 23.7368 28.6864 21.1538 25.5002 21.1538C22.3139 21.1538 19.731 23.7368 19.731 26.9231C19.731 30.1093 22.3139 32.6923 25.5002 32.6923Z" stroke="#FFFAFA" stroke-width="2" stroke-linecap="round" stroke-linejoin="round"/>
</svg>
