<svg width="26" height="25" viewBox="0 0 26 25" fill="none" xmlns="http://www.w3.org/2000/svg">
<path d="M7.44874 18.7478H18.7201L17.499 19.899C17.3221 20.067 17.2228 20.295 17.2228 20.5326C17.2228 20.7703 17.3221 20.9982 17.499 21.1662C17.6759 21.3343 17.9157 21.4287 18.1659 21.4287C18.416 21.4287 18.6559 21.3343 18.8328 21.1662L21.6506 18.489C21.7386 18.406 21.8085 18.3073 21.8562 18.1986C21.9039 18.0898 21.9284 17.9732 21.9284 17.8554C21.9284 17.7376 21.9039 17.6209 21.8562 17.5122C21.8085 17.4034 21.7386 17.3047 21.6506 17.2217L18.8328 14.5445C18.7454 14.4609 18.6416 14.3945 18.5271 14.3492C18.4126 14.3039 18.2899 14.2805 18.1659 14.2805C18.0419 14.2805 17.9191 14.3039 17.8047 14.3492C17.6902 14.3945 17.5863 14.4609 17.499 14.5445C17.411 14.6275 17.3411 14.7262 17.2934 14.8349C17.2457 14.9437 17.2212 15.0603 17.2212 15.1781C17.2212 15.2959 17.2457 15.4126 17.2934 15.5213C17.3411 15.6301 17.411 15.7288 17.499 15.8117L18.7201 16.9629H7.44874C7.25631 16.9665 7.06502 16.934 6.88582 16.8673C6.70661 16.8006 6.54299 16.701 6.4043 16.5742C6.26562 16.4474 6.15458 16.2959 6.07754 16.1283C6.00049 15.9607 5.95895 15.7804 5.95529 15.5975V13.3933C5.95529 13.1566 5.85633 12.9296 5.68018 12.7622C5.50403 12.5949 5.26512 12.5009 5.01601 12.5009C4.7669 12.5009 4.52799 12.5949 4.35184 12.7622C4.17569 12.9296 4.07674 13.1566 4.07674 13.3933V15.5975C4.08042 16.0148 4.17056 16.4272 4.34202 16.8113C4.51348 17.1954 4.76289 17.5437 5.07601 17.8362C5.38913 18.1287 5.75983 18.3598 6.16695 18.5162C6.57406 18.6726 7.00962 18.7513 7.44874 18.7478ZM7.16695 10.4572C7.34382 10.6253 7.58371 10.7197 7.83384 10.7197C8.08397 10.7197 8.32386 10.6253 8.50073 10.4572C8.6776 10.2892 8.77696 10.0613 8.77696 9.82362C8.77696 9.58597 8.6776 9.35805 8.50073 9.19L7.27967 8.03879H18.551C18.7434 8.03524 18.9347 8.06774 19.1139 8.13444C19.2931 8.20115 19.4567 8.30074 19.5954 8.42754C19.7341 8.55433 19.8451 8.70584 19.9222 8.87342C19.9992 9.041 20.0408 9.22135 20.0444 9.40418V11.6085C20.0444 11.8451 20.1434 12.0721 20.3195 12.2395C20.4957 12.4068 20.7346 12.5009 20.9837 12.5009C21.2328 12.5009 21.4717 12.4068 21.6479 12.2395C21.824 12.0721 21.923 11.8451 21.923 11.6085V9.40418C21.9193 8.98697 21.8292 8.57453 21.6577 8.19042C21.4862 7.80631 21.2368 7.45804 20.9237 7.16551C20.6106 6.87298 20.2399 6.64192 19.8328 6.48551C19.4257 6.32911 18.9901 6.25042 18.551 6.25396H7.27967L8.50073 5.10274C8.58876 5.01978 8.65864 4.92107 8.70633 4.81233C8.75401 4.70358 8.77856 4.58693 8.77856 4.46912C8.77856 4.35131 8.75401 4.23467 8.70633 4.12592C8.65864 4.01717 8.58876 3.91847 8.50073 3.83551C8.41341 3.75186 8.30952 3.68547 8.19506 3.64017C8.08061 3.59486 7.95784 3.57153 7.83384 3.57153C7.70985 3.57153 7.58708 3.59486 7.47262 3.64017C7.35816 3.68547 7.25427 3.75186 7.16695 3.83551L4.34913 6.51276C4.26109 6.59572 4.19121 6.69442 4.14353 6.80317C4.09584 6.91192 4.07129 7.02856 4.07129 7.14637C4.07129 7.26418 4.09584 7.38082 4.14353 7.48957C4.19121 7.59832 4.26109 7.69702 4.34913 7.77999L7.16695 10.4572Z" fill="#FFFAFA"/>
</svg>
