<svg width="25" height="25" viewBox="0 0 25 25" fill="none" xmlns="http://www.w3.org/2000/svg">
<path d="M6.94874 18.7478H18.2201L16.999 19.899C16.8221 20.067 16.7228 20.295 16.7228 20.5326C16.7228 20.7703 16.8221 20.9982 16.999 21.1662C17.1759 21.3343 17.4157 21.4287 17.6659 21.4287C17.916 21.4287 18.1559 21.3343 18.3328 21.1662L21.1506 18.489C21.2386 18.406 21.3085 18.3073 21.3562 18.1986C21.4039 18.0898 21.4284 17.9732 21.4284 17.8554C21.4284 17.7376 21.4039 17.6209 21.3562 17.5122C21.3085 17.4034 21.2386 17.3047 21.1506 17.2217L18.3328 14.5445C18.2454 14.4609 18.1416 14.3945 18.0271 14.3492C17.9126 14.3039 17.7899 14.2805 17.6659 14.2805C17.5419 14.2805 17.4191 14.3039 17.3047 14.3492C17.1902 14.3945 17.0863 14.4609 16.999 14.5445C16.911 14.6275 16.8411 14.7262 16.7934 14.8349C16.7457 14.9437 16.7212 15.0603 16.7212 15.1781C16.7212 15.2959 16.7457 15.4126 16.7934 15.5213C16.8411 15.6301 16.911 15.7288 16.999 15.8117L18.2201 16.9629H6.94874C6.75631 16.9665 6.56502 16.934 6.38582 16.8673C6.20661 16.8006 6.04299 16.701 5.9043 16.5742C5.76562 16.4474 5.65458 16.2959 5.57754 16.1283C5.50049 15.9607 5.45895 15.7804 5.45529 15.5975V13.3933C5.45529 13.1566 5.35633 12.9296 5.18018 12.7622C5.00403 12.5949 4.76512 12.5009 4.51601 12.5009C4.2669 12.5009 4.02799 12.5949 3.85184 12.7622C3.67569 12.9296 3.57674 13.1566 3.57674 13.3933V15.5975C3.58042 16.0148 3.67056 16.4272 3.84202 16.8113C4.01348 17.1954 4.26289 17.5437 4.57601 17.8362C4.88913 18.1287 5.25983 18.3598 5.66695 18.5162C6.07406 18.6726 6.50962 18.7513 6.94874 18.7478ZM6.66695 10.4572C6.84382 10.6253 7.08371 10.7197 7.33384 10.7197C7.58397 10.7197 7.82386 10.6253 8.00073 10.4572C8.1776 10.2892 8.27696 10.0613 8.27696 9.82362C8.27696 9.58597 8.1776 9.35805 8.00073 9.19L6.77967 8.03879H18.051C18.2434 8.03524 18.4347 8.06774 18.6139 8.13444C18.7931 8.20115 18.9567 8.30074 19.0954 8.42754C19.2341 8.55433 19.3451 8.70584 19.4222 8.87342C19.4992 9.041 19.5408 9.22135 19.5444 9.40418V11.6085C19.5444 11.8451 19.6434 12.0721 19.8195 12.2395C19.9957 12.4068 20.2346 12.5009 20.4837 12.5009C20.7328 12.5009 20.9717 12.4068 21.1479 12.2395C21.324 12.0721 21.423 11.8451 21.423 11.6085V9.40418C21.4193 8.98697 21.3292 8.57453 21.1577 8.19042C20.9862 7.80631 20.7368 7.45804 20.4237 7.16551C20.1106 6.87298 19.7399 6.64192 19.3328 6.48551C18.9257 6.32911 18.4901 6.25042 18.051 6.25396H6.77967L8.00073 5.10274C8.08876 5.01978 8.15864 4.92107 8.20633 4.81233C8.25401 4.70358 8.27856 4.58693 8.27856 4.46912C8.27856 4.35131 8.25401 4.23467 8.20633 4.12592C8.15864 4.01717 8.08876 3.91847 8.00073 3.83551C7.91341 3.75186 7.80952 3.68547 7.69506 3.64017C7.58061 3.59486 7.45784 3.57153 7.33384 3.57153C7.20985 3.57153 7.08708 3.59486 6.97262 3.64017C6.85816 3.68547 6.75427 3.75186 6.66695 3.83551L3.84913 6.51276C3.76109 6.59572 3.69121 6.69442 3.64353 6.80317C3.59584 6.91192 3.57129 7.02856 3.57129 7.14637C3.57129 7.26418 3.59584 7.38082 3.64353 7.48957C3.69121 7.59832 3.76109 7.69702 3.84913 7.77999L6.66695 10.4572Z" fill="#2B2B2B"/>
</svg>
