<svg width="20" height="16" viewBox="0 0 20 16" fill="none" xmlns="http://www.w3.org/2000/svg">
<path d="M16.5086 3.13497H15.3086L15.0086 2.24473C14.8141 1.72236 14.4534 1.27037 13.9764 0.951356C13.4993 0.632346 12.9296 0.462117 12.3462 0.464253H7.54628C6.95712 0.4653 6.38319 0.642019 5.90548 0.969468C5.42776 1.29692 5.07041 1.75856 4.88384 2.28924L4.58385 3.17948H3.38387C2.63797 3.17948 1.92261 3.46086 1.39518 3.96171C0.86774 4.46257 0.57143 5.14187 0.57143 5.85019V12.9721C0.57143 13.6804 0.86774 14.3597 1.39518 14.8606C1.92261 15.3614 2.63797 15.6428 3.38387 15.6428H16.5086C17.2545 15.6428 17.9699 15.3614 18.4973 14.8606C19.0247 14.3597 19.321 13.6804 19.321 12.9721V5.85019C19.3273 5.49574 19.2591 5.14366 19.1206 4.81448C18.982 4.4853 18.7758 4.1856 18.5141 3.93287C18.2523 3.68014 17.9401 3.47943 17.5958 3.34243C17.2515 3.20544 16.8819 3.13492 16.5086 3.13497ZM17.4461 12.9276C17.4461 13.1637 17.3473 13.3901 17.1715 13.5571C16.9957 13.724 16.7572 13.8178 16.5086 13.8178H3.38387C3.13524 13.8178 2.89678 13.724 2.72097 13.5571C2.54516 13.3901 2.44639 13.1637 2.44639 12.9276V5.80568C2.44639 5.56957 2.54516 5.34314 2.72097 5.17619C2.89678 5.00923 3.13524 4.91544 3.38387 4.91544H5.25883C5.46327 4.92557 5.66557 4.87189 5.83485 4.76258C6.00413 4.65327 6.13108 4.49434 6.19631 4.31008L6.70255 2.85009C6.76544 2.67327 6.88526 2.51969 7.04508 2.41106C7.2049 2.30243 7.39662 2.24425 7.59316 2.24473H12.3931C12.5896 2.24425 12.7813 2.30243 12.9411 2.41106C13.101 2.51969 13.2208 2.67327 13.2837 2.85009L13.7899 4.31008C13.8501 4.47989 13.9628 4.62851 14.1133 4.73651C14.2638 4.84452 14.4452 4.90688 14.6336 4.91544H16.5086C16.7572 4.91544 16.9957 5.00923 17.1715 5.17619C17.3473 5.34314 17.4461 5.56957 17.4461 5.80568V12.9276ZM9.94623 4.91544C9.20457 4.91544 8.47956 5.12429 7.86289 5.51557C7.24622 5.90685 6.76558 6.463 6.48176 7.11367C6.19794 7.76435 6.12367 8.48034 6.26837 9.1711C6.41306 9.86186 6.7702 10.4964 7.29464 10.9944C7.81908 11.4924 8.48725 11.8315 9.21466 11.9689C9.94208 12.1063 10.6961 12.0358 11.3813 11.7663C12.0665 11.4968 12.6521 11.0403 13.0642 10.4547C13.4762 9.86915 13.6962 9.18068 13.6962 8.47639C13.6962 7.53197 13.3011 6.62623 12.5978 5.95842C11.8946 5.29061 10.9408 4.91544 9.94623 4.91544ZM9.94623 10.2569C9.5754 10.2569 9.2129 10.1524 8.90456 9.9568C8.59623 9.76116 8.35591 9.48309 8.214 9.15775C8.07208 8.83241 8.03496 8.47442 8.1073 8.12904C8.17965 7.78366 8.35822 7.46641 8.62044 7.21741C8.88266 6.9684 9.21674 6.79883 9.58045 6.73013C9.94416 6.66143 10.3211 6.69669 10.6638 6.83145C11.0064 6.96621 11.2992 7.19442 11.5052 7.48721C11.7112 7.78001 11.8212 8.12425 11.8212 8.47639C11.8212 8.9486 11.6237 9.40147 11.272 9.73538C10.9204 10.0693 10.4435 10.2569 9.94623 10.2569Z" fill="#2B2B2B"/>
</svg>
