<svg width="353" height="658" viewBox="0 0 353 658" fill="none" xmlns="http://www.w3.org/2000/svg">
<g filter="url(#filter0_d_395_199)">
<g clip-path="url(#clip0_395_199)">
<g filter="url(#filter1_d_395_199)">
<path d="M42 631.246C30.9543 631.246 22 622.292 22 611.246V202.212C35.1273 202.212 45.7695 191.57 45.7695 178.442C45.7695 165.52 35.4572 155.006 22.6133 154.681L22 154.673V38C22 26.9543 30.9543 18 42 18H311C322.046 18 331 26.9543 331 38V154.673C317.873 154.673 307.23 165.315 307.23 178.442C307.231 191.57 317.873 202.212 331 202.212V611.246C331 622.292 322.046 631.246 311 631.246H42Z" fill="#FFFAFA"/>
</g>
<path d="M319 610.246H333L311 631.246H298L319 610.246Z" fill="#9A8C4F" stroke="#9A8C4F"/>
<path d="M289 610.246H303L281 631.246H268L289 610.246Z" fill="#9A8C4F" stroke="#9A8C4F"/>
<path d="M259 610.246H273L251 631.246H238L259 610.246Z" fill="#9A8C4F" stroke="#9A8C4F"/>
<path d="M229 610.246H243L221 631.246H208L229 610.246Z" fill="#9A8C4F" stroke="#9A8C4F"/>
<path d="M199 610.246H213L191 631.246H178L199 610.246Z" fill="#9A8C4F" stroke="#9A8C4F"/>
<path d="M169 610.246H183L161 631.246H148L169 610.246Z" fill="#9A8C4F" stroke="#9A8C4F"/>
<path d="M139 610.246H153L131 631.246H118L139 610.246Z" fill="#9A8C4F" stroke="#9A8C4F"/>
<path d="M109 610.246H123L101 631.246H88L109 610.246Z" fill="#9A8C4F" stroke="#9A8C4F"/>
<path d="M79 610.246H93L71 631.246H58L79 610.246Z" fill="#9A8C4F" stroke="#9A8C4F"/>
<path d="M49 610.246H63L41 631.246H28L49 610.246Z" fill="#9A8C4F" stroke="#9A8C4F"/>
<path d="M19 610.246H33L11 631.246H-2L19 610.246Z" fill="#9A8C4F" stroke="#9A8C4F"/>
<path d="M319 18.2461H333L311 39.2461H298L319 18.2461Z" fill="#9A8C4F" stroke="#9A8C4F"/>
<path d="M289 18.2461H303L281 39.2461H268L289 18.2461Z" fill="#9A8C4F" stroke="#9A8C4F"/>
<path d="M259 18.2461H273L251 39.2461H238L259 18.2461Z" fill="#9A8C4F" stroke="#9A8C4F"/>
<path d="M229 18.2461H243L221 39.2461H208L229 18.2461Z" fill="#9A8C4F" stroke="#9A8C4F"/>
<path d="M199 18.2461H213L191 39.2461H178L199 18.2461Z" fill="#9A8C4F" stroke="#9A8C4F"/>
<path d="M169 18.2461H183L161 39.2461H148L169 18.2461Z" fill="#9A8C4F" stroke="#9A8C4F"/>
<path d="M139 18.2461H153L131 39.2461H118L139 18.2461Z" fill="#9A8C4F" stroke="#9A8C4F"/>
<path d="M109 18.2461H123L101 39.2461H88L109 18.2461Z" fill="#9A8C4F" stroke="#9A8C4F"/>
<path d="M79 18.2461H93L71 39.2461H58L79 18.2461Z" fill="#9A8C4F" stroke="#9A8C4F"/>
<path d="M49 18.2461H63L41 39.2461H28L49 18.2461Z" fill="#9A8C4F" stroke="#9A8C4F"/>
<path d="M19 18.2461H33L11 39.2461H-2L19 18.2461Z" fill="#9A8C4F" stroke="#9A8C4F"/>
<path d="M73 475.246C73 414.495 122.249 365.246 183 365.246C243.751 365.246 293 414.495 293 475.246C293 535.997 243.751 585.246 183 585.246C122.249 585.246 73 535.997 73 475.246ZM265.5 475.246C265.5 429.683 228.563 392.746 183 392.746C137.437 392.746 100.5 429.683 100.5 475.246C100.5 520.81 137.437 557.746 183 557.746C228.563 557.746 265.5 520.81 265.5 475.246Z" fill="#9A8C4F" fill-opacity="0.04"/>
<path d="M-17 270.246C-17 226.063 18.8172 190.246 63 190.246C107.183 190.246 143 226.063 143 270.246C143 314.429 107.183 350.246 63 350.246C18.8172 350.246 -17 314.429 -17 270.246ZM111 270.246C111 243.736 89.5097 222.246 63 222.246C36.4903 222.246 15 243.736 15 270.246C15 296.756 36.4903 318.246 63 318.246C89.5097 318.246 111 296.756 111 270.246Z" fill="#9A8C4F" fill-opacity="0.04"/>
<path d="M208 261.246C208 233.632 230.386 211.246 258 211.246C285.614 211.246 308 233.632 308 261.246C308 288.86 285.614 311.246 258 311.246C230.386 311.246 208 288.86 208 261.246ZM283 261.246C283 247.439 271.807 236.246 258 236.246C244.193 236.246 233 247.439 233 261.246C233 275.053 244.193 286.246 258 286.246C271.807 286.246 283 275.053 283 261.246Z" fill="#9A8C4F" fill-opacity="0.04"/>
<path d="M63 115.246C63 87.6319 85.3858 65.2461 113 65.2461C140.614 65.2461 163 87.6319 163 115.246C163 142.86 140.614 165.246 113 165.246C85.3858 165.246 63 142.86 63 115.246ZM138 115.246C138 101.439 126.807 90.2461 113 90.2461C99.1929 90.2461 88 101.439 88 115.246C88 129.053 99.1929 140.246 113 140.246C126.807 140.246 138 129.053 138 115.246Z" fill="#9A8C4F" fill-opacity="0.04"/>
<path d="M198 39.2461C198 -15.9824 242.772 -60.7539 298 -60.7539C353.228 -60.7539 398 -15.9824 398 39.2461C398 94.4746 353.228 139.246 298 139.246C242.772 139.246 198 94.4746 198 39.2461ZM348 39.2461C348 11.6319 325.614 -10.7539 298 -10.7539C270.386 -10.7539 248 11.6319 248 39.2461C248 66.8603 270.386 89.2461 298 89.2461C325.614 89.2461 348 66.8603 348 39.2461Z" fill="#9A8C4F" fill-opacity="0.04"/>
</g>
</g>
<defs>
<filter id="filter0_d_395_199" x="0" y="0" width="353" height="657.246" filterUnits="userSpaceOnUse" color-interpolation-filters="sRGB">
<feFlood flood-opacity="0" result="BackgroundImageFix"/>
<feColorMatrix in="SourceAlpha" type="matrix" values="0 0 0 0 0 0 0 0 0 0 0 0 0 0 0 0 0 0 127 0" result="hardAlpha"/>
<feMorphology radius="2" operator="dilate" in="SourceAlpha" result="effect1_dropShadow_395_199"/>
<feOffset dy="4"/>
<feGaussianBlur stdDeviation="10"/>
<feComposite in2="hardAlpha" operator="out"/>
<feColorMatrix type="matrix" values="0 0 0 0 0.168627 0 0 0 0 0.168627 0 0 0 0 0.168627 0 0 0 0.5 0"/>
<feBlend mode="normal" in2="BackgroundImageFix" result="effect1_dropShadow_395_199"/>
<feBlend mode="normal" in="SourceGraphic" in2="effect1_dropShadow_395_199" result="shape"/>
</filter>
<filter id="filter1_d_395_199" x="0" y="0" width="353" height="657.246" filterUnits="userSpaceOnUse" color-interpolation-filters="sRGB">
<feFlood flood-opacity="0" result="BackgroundImageFix"/>
<feColorMatrix in="SourceAlpha" type="matrix" values="0 0 0 0 0 0 0 0 0 0 0 0 0 0 0 0 0 0 127 0" result="hardAlpha"/>
<feMorphology radius="2" operator="dilate" in="SourceAlpha" result="effect1_dropShadow_395_199"/>
<feOffset dy="4"/>
<feGaussianBlur stdDeviation="10"/>
<feComposite in2="hardAlpha" operator="out"/>
<feColorMatrix type="matrix" values="0 0 0 0 0.168627 0 0 0 0 0.168627 0 0 0 0 0.168627 0 0 0 0.5 0"/>
<feBlend mode="normal" in2="BackgroundImageFix" result="effect1_dropShadow_395_199"/>
<feBlend mode="normal" in="SourceGraphic" in2="effect1_dropShadow_395_199" result="shape"/>
</filter>
<clipPath id="clip0_395_199">
<rect x="331" y="631.246" width="309" height="613.246" rx="20" transform="rotate(180 331 631.246)" fill="white"/>
</clipPath>
</defs>
</svg>
